<svg xmlns="http://www.w3.org/2000/svg" version="1.1" xmlns:xlink="http://www.w3.org/1999/xlink" xmlns:svgjs="http://svgjs.dev/svgjs" width="128" height="128" viewBox="0 0 128 128"><g transform="matrix(0.6130952380952381,0,0,0.6130952380952381,24.86684693434089,12.333870967741937)"><svg viewBox="0 0 118 155" data-background-color="#010536" preserveAspectRatio="xMidYMid meet" height="168" width="128" xmlns="http://www.w3.org/2000/svg" xmlns:xlink="http://www.w3.org/1999/xlink"><g id="tight-bounds" transform="matrix(1,0,0,1,-0.15779532967034982,0.25)"><svg viewBox="0 0 118.31559065934067 154.5" height="154.5" width="118.31559065934067"><g><svg viewBox="0 0 118.31559065934067 154.5" height="154.5" width="118.31559065934067"><g><svg viewBox="0 0 118.31559065934067 154.5" height="154.5" width="118.31559065934067"><g id="textblocktransform"><svg viewBox="0 0 118.31559065934067 154.5" height="154.5" width="118.31559065934067" id="textblock"><g><svg viewBox="0 0 118.31559065934067 154.5" height="154.5" width="118.31559065934067"><g transform="matrix(1,0,0,1,0,0)"><svg width="118.31559065934067" viewBox="3.17 -35.55 27.229999999999997 35.55" height="154.5" data-palette-color="#fbfbf8"><path d="M16.92-12.52L10.5-12.52 10.5 0 3.17 0 3.17-35.55 17.04-35.55Q21.04-35.55 24.08-34.08 27.12-32.62 28.76-29.92 30.4-27.22 30.4-23.78L30.4-23.78Q30.4-18.55 26.82-15.54 23.24-12.52 16.92-12.52L16.92-12.52ZM10.5-29.61L10.5-18.46 17.04-18.46Q19.95-18.46 21.47-19.82 23-21.19 23-23.73L23-23.73Q23-26.34 21.46-27.95 19.92-29.57 17.21-29.61L17.21-29.61 10.5-29.61Z" opacity="1" transform="matrix(1,0,0,1,0,0)" fill="#ffffff" class="wordmark-text-0" data-fill-palette-color="primary" id="text-0"></path></svg></g></svg></g></svg></g></svg></g><g></g></svg></g><defs></defs></svg><rect width="118.31559065934067" height="154.5" fill="none" stroke="none" visibility="hidden"></rect></g></svg></g></svg>