<svg xmlns="http://www.w3.org/2000/svg" version="1.1" xmlns:xlink="http://www.w3.org/1999/xlink" xmlns:svgjs="http://svgjs.dev/svgjs" width="2000" height="2410" viewBox="0 0 2000 2410"><g transform="matrix(1,0,0,1,-0.8632478632478069,-3.4098936170207708)"><svg viewBox="0 0 117 141" data-background-color="#010536" preserveAspectRatio="xMidYMid meet" height="2410" width="2000" xmlns="http://www.w3.org/2000/svg" xmlns:xlink="http://www.w3.org/1999/xlink"><g id="tight-bounds" transform="matrix(1,0,0,1,0.050499999999999545,0.19949999999997203)"><svg viewBox="0 0 116.89890280219781 140.60052000000002" height="140.60052000000002" width="116.89890280219781"><g><svg viewBox="0 0 116.89890280219781 140.60052000000002" height="140.60052000000002" width="116.89890280219781"><g><svg viewBox="0 0 116.89890280219781 140.60052000000002" height="140.60052000000002" width="116.89890280219781"><g><path d="M0 140.601v-140.601h116.899v140.601z" fill="#000000" stroke="transparent" stroke-width="0" rx="0%" data-fill-palette-color="tertiary"></path><path d="M3.283 137.317v-134.034h110.333v134.034z" fill="#ffffff" stroke="transparent" stroke-width="0" rx="0%" data-fill-palette-color="quaternary"></path><path d="M9.85 130.751v-120.901h97.199v120.901z" fill="#000000" stroke="transparent" stroke-width="0" data-fill-palette-color="tertiary"></path></g><g transform="matrix(1,0,0,1,19.69974,19.69974)" id="textblocktransform"><svg viewBox="0 0 77.49942280219781 101.20104000000002" height="101.20104000000002" width="77.49942280219781" id="textblock"><g><svg viewBox="0 0 77.49942280219781 101.20104000000002" height="101.20104000000002" width="77.49942280219781"><g transform="matrix(1,0,0,1,0,0)"><svg width="77.49942280219781" viewBox="3.1700000762939453 -35.54999923706055 27.229999542236328 35.54999923706055" height="101.20104000000002" data-palette-color="#010536"><path d="M16.92-12.52L10.5-12.52 10.5 0 3.17 0 3.17-35.55 17.04-35.55Q21.04-35.55 24.08-34.08 27.12-32.62 28.76-29.92 30.4-27.22 30.4-23.78L30.4-23.78Q30.4-18.55 26.82-15.54 23.24-12.52 16.92-12.52L16.92-12.52ZM10.5-29.61L10.5-18.46 17.04-18.46Q19.95-18.46 21.47-19.82 23-21.19 23-23.73L23-23.73Q23-26.34 21.46-27.95 19.92-29.57 17.21-29.61L17.21-29.61 10.5-29.61Z" opacity="1" transform="matrix(1,0,0,1,0,0)" fill="#ffffff" class="wordmark-text-0" data-fill-palette-color="quaternary" id="text-0"></path></svg></g></svg></g></svg></g></svg></g><g></g></svg></g><defs></defs></svg><rect width="116.89890280219781" height="140.60052000000002" fill="none" stroke="none" visibility="hidden"></rect></g></svg></g></svg>